<svg width="17" height="12" viewBox="0 0 17 12" fill="none" xmlns="http://www.w3.org/2000/svg">
<path fill-rule="evenodd" clip-rule="evenodd" d="M11.9445 5.25599C10.8974 4.30163 9.82357 2.81093 9.82357 0.722656H11.3355C11.3355 2.25161 12.1549 3.37976 13.0722 4.16843C13.5265 4.5591 13.9847 4.84747 14.3306 5.03813C14.5026 5.13296 14.6446 5.20232 14.7411 5.24702C14.7893 5.26935 14.8261 5.28543 14.8493 5.2954L14.8739 5.30574L14.8768 5.30693L14.8782 5.30747L16.5 5.95109L14.9503 6.77108L14.9444 6.77427L14.9175 6.78905C14.8926 6.80287 14.8542 6.82455 14.8042 6.85382C14.7042 6.91242 14.5584 7.00111 14.382 7.11772C14.0278 7.35199 13.5588 7.69367 13.0933 8.12472C12.1305 9.01623 11.3355 10.1465 11.3355 11.3893H9.82357C9.82357 9.43217 11.0445 7.89575 12.0976 6.92059C12.1211 6.89885 12.1446 6.87732 12.1681 6.85599H0.5V5.25599H11.9445Z" fill="white"/>
</svg>
