<svg width="17" height="11" viewBox="0 0 17 11" fill="none" xmlns="http://www.w3.org/2000/svg">
<path fill-rule="evenodd" clip-rule="evenodd" d="M11.9445 4.75599C10.8974 3.80163 9.82357 2.31093 9.82357 0.222656H11.3355C11.3355 1.75161 12.1549 2.87976 13.0722 3.66843C13.5265 4.0591 13.9847 4.34747 14.3306 4.53813C14.5026 4.63296 14.6446 4.70232 14.7411 4.74702C14.7893 4.76935 14.8261 4.78543 14.8493 4.7954L14.8739 4.80574L14.8768 4.80693L14.8782 4.80747L16.5 5.45109L14.9503 6.27108L14.9444 6.27427L14.9175 6.28905C14.8926 6.30287 14.8542 6.32455 14.8042 6.35382C14.7042 6.41242 14.5584 6.50111 14.382 6.61772C14.0278 6.85199 13.5588 7.19367 13.0933 7.62472C12.1305 8.51623 11.3355 9.64647 11.3355 10.8893H9.82357C9.82357 8.93217 11.0445 7.39575 12.0976 6.42059C12.1211 6.39885 12.1446 6.37732 12.1681 6.35599H0.5V4.75599H11.9445Z" fill="#181E22"/>
</svg>
