<svg width="20" height="20" viewBox="0 0 20 20" fill="none" xmlns="http://www.w3.org/2000/svg">
<g clip-path="url(#clip0_1674_1576)">
<path d="M6.28914 6.87891H9.16947C9.93187 6.87891 10.5811 7.37099 10.8174 8.05412H6.28914V9.19084H10.8174C10.5811 9.87393 9.9319 10.3661 9.16947 10.3661H6.28914V11.6115L10.7599 16.0822L11.5636 15.2784L7.78798 11.5028H9.16943C10.5631 11.5028 11.7285 10.5077 11.9931 9.19084H13.1037V8.05412H11.9929C11.9055 7.61925 11.7203 7.21935 11.4606 6.87891H13.1037V5.74219H6.28906V6.87891H6.28914Z" fill="#687986"/>
<path d="M16.559 3.37229C14.7268 1.54024 12.291 0.53125 9.7 0.53125C7.10904 0.53125 4.67316 1.54024 2.84104 3.37229C1.00899 5.20441 0 7.64029 0 10.2312C0 12.8222 1.00899 15.2581 2.84104 17.0902C4.67316 18.9223 7.10904 19.9312 9.7 19.9312C12.291 19.9312 14.7268 18.9223 16.559 17.0902C18.391 15.2581 19.4 12.8222 19.4 10.2312C19.4 7.64029 18.391 5.20441 16.559 3.37229ZM15.7551 16.2864C14.1377 17.9038 11.9873 18.7945 9.7 18.7945C7.41266 18.7945 5.26225 17.9038 3.64485 16.2864C2.02745 14.669 1.13672 12.5186 1.13672 10.2312C1.13672 7.94391 2.02745 5.7935 3.64485 4.1761C5.26225 2.5587 7.41266 1.66797 9.7 1.66797C11.9873 1.66797 14.1377 2.5587 15.7551 4.1761C17.3725 5.7935 18.2633 7.94391 18.2633 10.2312C18.2633 12.5186 17.3725 14.669 15.7551 16.2864Z" fill="#687986"/>
</g>
<defs>
<clipPath id="clip0_1674_1576">
<rect width="19.4" height="19.4" fill="white" transform="translate(0 0.53125)"/>
</clipPath>
</defs>
</svg>
