<svg width="20" height="20" viewBox="0 0 20 20" fill="none" xmlns="http://www.w3.org/2000/svg">
<g clip-path="url(#clip0_1687_1264)">
<path d="M17.8939 12.334C16.9595 12.334 16.17 12.9641 15.9264 13.8216H13.9518V11.644H15.968C18.1578 11.644 19.9393 9.86247 19.9393 7.67266C19.9393 5.91692 18.7748 4.37453 17.1217 3.87218C16.622 1.87125 14.8158 0.436158 12.7239 0.436158C11.913 0.436158 11.1362 0.645273 10.4507 1.0448C9.72463 0.38082 8.77262 0.0078125 7.77234 0.0078125C5.62678 0.0078125 3.87317 1.71818 3.80317 3.84697C2.10508 4.32161 0.898438 5.87638 0.898438 7.67266C0.898438 9.86247 2.67995 11.644 4.86976 11.644H6.8859V13.8216H4.9113C4.66782 12.9641 3.8783 12.334 2.94384 12.334C1.81601 12.334 0.898438 13.2516 0.898438 14.3794C0.898438 15.5073 1.81601 16.4248 2.94384 16.4248C3.8783 16.4248 4.66779 15.7947 4.9113 14.9373H7.44374C7.75181 14.9373 8.00158 14.6875 8.00158 14.3794V11.644H9.86104V15.0152C9.00356 15.2587 8.37347 16.0482 8.37347 16.9827C8.37347 18.1105 9.29104 19.0281 10.4189 19.0281C11.5467 19.0281 12.4643 18.1105 12.4643 16.9827C12.4643 16.0482 11.8342 15.2587 10.9767 15.0152V11.644H12.8362V14.3794C12.8362 14.6875 13.0859 14.9373 13.394 14.9373H15.9264C16.1699 15.7947 16.9595 16.4248 17.8939 16.4248C19.0217 16.4248 19.9393 15.5073 19.9393 14.3794C19.9393 13.2516 19.0217 12.334 17.8939 12.334ZM2.94384 15.3092C2.43119 15.3092 2.01411 14.8921 2.01411 14.3794C2.01411 13.8668 2.43119 13.4497 2.94384 13.4497C3.4565 13.4497 3.87357 13.8668 3.87357 14.3794C3.87357 14.8921 3.4565 15.3092 2.94384 15.3092ZM11.3486 16.9827C11.3486 17.4953 10.9315 17.9124 10.4189 17.9124C9.90622 17.9124 9.48914 17.4953 9.48914 16.9827C9.48914 16.47 9.90622 16.0529 10.4189 16.0529C10.9315 16.0529 11.3486 16.47 11.3486 16.9827ZM4.86976 10.5283C3.29517 10.5283 2.01411 9.24728 2.01411 7.67266C2.01411 6.26531 3.06311 5.05059 4.4541 4.84717C4.74763 4.80425 4.95619 4.53909 4.92882 4.24374C4.92075 4.1566 4.91666 4.06757 4.91666 3.9791C4.91666 2.40455 6.19771 1.12353 7.77231 1.12353C8.61241 1.12353 9.40465 1.48872 9.94583 2.12548C10.1358 2.34902 10.4665 2.38718 10.7024 2.21283C11.2875 1.7804 11.9865 1.55183 12.7239 1.55183C14.4208 1.55183 15.8319 2.79689 16.0957 4.41652C16.133 4.64553 16.3082 4.82753 16.5356 4.87357C17.8614 5.14197 18.8236 6.31912 18.8236 7.67266C18.8236 9.24728 17.5425 10.5283 15.968 10.5283H4.86976ZM17.8939 15.3092C17.3813 15.3092 16.9642 14.8921 16.9642 14.3794C16.9642 13.8668 17.3813 13.4497 17.8939 13.4497C18.4066 13.4497 18.8236 13.8668 18.8236 14.3794C18.8236 14.8921 18.4066 15.3092 17.8939 15.3092Z" fill="#687986"/>
</g>
<defs>
<clipPath id="clip0_1687_1264">
<rect width="19.0409" height="19.0409" fill="white" transform="translate(0.90625)"/>
</clipPath>
</defs>
</svg>
