<svg width="20" height="20" viewBox="0 0 20 20" fill="none" xmlns="http://www.w3.org/2000/svg">
<g clip-path="url(#clip0_1674_1491)">
<path d="M11.2331 14.8697C11.2331 15.2805 10.9009 15.6135 10.491 15.6135H6.11266C5.7028 15.6135 5.37056 15.2805 5.37056 14.8697C5.37056 14.4589 5.7028 14.1259 6.11266 14.1259H10.491C10.9009 14.1259 11.2331 14.4589 11.2331 14.8697ZM19.9899 5.42922V14.1383C19.9899 15.2803 19.5462 16.3539 18.7405 17.1614L17.1559 18.7496C16.3502 19.5571 15.2791 20.0018 14.1397 20.0018H5.45034C2.98617 20.0018 0.992188 18.0031 0.992188 15.5335V5.42922C0.992188 2.95945 2.98639 0.960938 5.45034 0.960938H15.5317C17.9959 0.960938 19.9899 2.95967 19.9899 5.42922ZM18.4061 14.8821H16.366C15.5476 14.8821 14.8818 15.5494 14.8818 16.3697V18.4145C15.3405 18.288 15.7609 18.044 16.1064 17.6978L17.691 16.1095C18.0365 15.7632 18.28 15.3418 18.4061 14.8821ZM18.5057 5.42922C18.5057 3.7817 17.1754 2.44851 15.5317 2.44851H5.45034C3.80656 2.44851 2.47638 3.78178 2.47638 5.42922V15.5335C2.47638 17.181 3.80663 18.5142 5.45034 18.5142H13.3976V16.3697C13.3976 14.7292 14.7292 13.3945 16.366 13.3945H18.5057V5.42922ZM14.8694 9.73759H6.11266C5.7028 9.73759 5.37056 10.0706 5.37056 10.4814C5.37056 10.8922 5.7028 11.2252 6.11266 11.2252H14.8694C15.2793 11.2252 15.6115 10.8922 15.6115 10.4814C15.6115 10.0706 15.2793 9.73759 14.8694 9.73759ZM14.8694 5.34926H6.11266C5.7028 5.34926 5.37056 5.68226 5.37056 6.09305C5.37056 6.50384 5.7028 6.83683 6.11266 6.83683H14.8694C15.2793 6.83683 15.6115 6.50384 15.6115 6.09305C15.6115 5.68226 15.2793 5.34926 14.8694 5.34926Z" fill="#687986"/>
</g>
<defs>
<clipPath id="clip0_1674_1491">
<rect width="19.0409" height="19.0409" fill="white" transform="translate(0.90625 0.960938)"/>
</clipPath>
</defs>
</svg>
