<svg width="21" height="20" viewBox="0 0 21 20" fill="none" xmlns="http://www.w3.org/2000/svg">
<circle cx="10.7144" cy="10" r="9.5" stroke="#687986"/>
<mask id="mask0_6_2022" style="mask-type:alpha" maskUnits="userSpaceOnUse" x="1" y="1" width="19" height="19">
<circle cx="10.7145" cy="10.0014" r="8.99998" fill="white"/>
</mask>
<g mask="url(#mask0_6_2022)">
<g clip-path="url(#clip0_6_2022)">
<path d="M22.7387 0.50293H-1.3102C-2.48019 0.50293 -3.42859 1.44886 -3.42859 2.61581V6.66421H24.8571V2.61581C24.8571 1.44886 23.9087 0.50293 22.7387 0.50293Z" fill="#FAB446"/>
<path d="M-3.42859 16.8736C-3.42859 18.0405 -2.48019 18.9865 -1.3102 18.9865H22.7387C23.9086 18.9865 24.8571 18.0405 24.8571 16.8736V12.8252H-3.42859V16.8736Z" fill="#73AF00"/>
<path d="M24.8571 6.66406H-3.42859V12.825H24.8571V6.66406Z" fill="#F5F5F5"/>
<path d="M10.7144 12.3615C9.26898 12.3615 8.09314 11.1887 8.09314 9.74704C8.09314 8.30536 9.26898 7.13257 10.7144 7.13257C12.1599 7.13257 13.3357 8.30536 13.3357 9.74704C13.3357 11.1887 12.1599 12.3615 10.7144 12.3615ZM10.7144 7.61895C9.53781 7.61895 8.58079 8.57348 8.58079 9.74704C8.58079 10.9206 9.53781 11.8751 10.7144 11.8751C11.891 11.8751 12.8481 10.9206 12.8481 9.74704C12.8481 8.57348 11.891 7.61895 10.7144 7.61895Z" fill="#41479B"/>
<path d="M10.7144 10.0432C10.8785 10.0432 11.0116 9.91053 11.0116 9.74683C11.0116 9.58314 10.8785 9.45044 10.7144 9.45044C10.5503 9.45044 10.4172 9.58314 10.4172 9.74683C10.4172 9.91053 10.5503 10.0432 10.7144 10.0432Z" fill="#41479B"/>
<path d="M10.7146 9.79168L9.95938 9.86773L8.33716 9.79168V9.70275L9.95938 9.62671L10.7146 9.70275V9.79168Z" fill="#41479B"/>
<path d="M10.7145 9.79168L11.4697 9.86773L13.0919 9.79168V9.70275L11.4697 9.62671L10.7145 9.70275V9.79168Z" fill="#41479B"/>
<path d="M10.6697 9.74748L10.5935 8.99423L10.6697 7.37622H10.7589L10.8351 8.99423L10.7589 9.74748H10.6697Z" fill="#41479B"/>
<path d="M10.6697 9.74854L10.5935 10.5018L10.6697 12.1198H10.7589L10.8351 10.5018L10.7589 9.74854H10.6697Z" fill="#41479B"/>
<path d="M10.6828 9.77741L10.0949 9.29863L9.00171 8.10071L9.06474 8.03784L10.2658 9.1282L10.7458 9.71459L10.6828 9.77741Z" fill="#41479B"/>
<path d="M10.683 9.77864L11.163 10.365L12.364 11.4554L12.4271 11.3925L11.3339 10.1946L10.746 9.71582L10.683 9.77864Z" fill="#41479B"/>
<path d="M10.683 9.71459L11.163 9.1282L12.364 8.03784L12.4271 8.10071L11.3339 9.29863L10.746 9.77741L10.683 9.71459Z" fill="#41479B"/>
<path d="M10.6828 9.71582L10.0949 10.1946L9.00171 11.3925L9.06474 11.4554L10.2658 10.365L10.7458 9.77864L10.6828 9.71582Z" fill="#41479B"/>
<path d="M10.7316 9.78729L10.063 10.1458L8.53512 10.6947L8.50098 10.6126L9.97056 9.92312L10.6974 9.70508L10.7316 9.78729Z" fill="#41479B"/>
<path d="M10.7315 9.78919L11.4584 9.57115L12.928 8.88172L12.8938 8.79956L11.366 9.34849L10.6974 9.70698L10.7315 9.78919Z" fill="#41479B"/>
<path d="M10.6732 9.76435L10.3138 9.0975L9.76343 7.5736L9.8458 7.53955L10.537 9.00532L10.7556 9.73029L10.6732 9.76435Z" fill="#41479B"/>
<path d="M10.6732 9.76525L10.8918 10.4902L11.5831 11.956L11.6654 11.9219L11.1151 10.398L10.7556 9.7312L10.6732 9.76525Z" fill="#41479B"/>
<path d="M10.6974 9.78919L9.97056 9.57115L8.50098 8.88172L8.53512 8.79956L10.063 9.34849L10.7316 9.70698L10.6974 9.78919Z" fill="#41479B"/>
<path d="M10.6974 9.78729L11.366 10.1458L12.8938 10.6947L12.928 10.6126L11.4584 9.92312L10.7315 9.70508L10.6974 9.78729Z" fill="#41479B"/>
<path d="M10.6732 9.73029L10.8918 9.00532L11.5831 7.53955L11.6654 7.5736L11.1151 9.0975L10.7556 9.76435L10.6732 9.73029Z" fill="#41479B"/>
<path d="M10.6732 9.7312L10.3138 10.398L9.76343 11.9219L9.8458 11.956L10.537 10.4902L10.7556 9.76525L10.6732 9.7312Z" fill="#41479B"/>
<path d="M10.7142 10.1449C10.9356 10.1449 11.1151 9.96585 11.1151 9.74503C11.1151 9.52422 10.9356 9.34521 10.7142 9.34521C10.4928 9.34521 10.3134 9.52422 10.3134 9.74503C10.3134 9.96585 10.4928 10.1449 10.7142 10.1449Z" fill="#F5F5F5"/>
<path d="M10.7142 9.98585C10.847 9.98585 10.9546 9.87851 10.9546 9.7461C10.9546 9.61369 10.847 9.50635 10.7142 9.50635C10.5815 9.50635 10.4739 9.61369 10.4739 9.7461C10.4739 9.87851 10.5815 9.98585 10.7142 9.98585Z" fill="#41479B"/>
</g>
</g>
<defs>
<clipPath id="clip0_6_2022">
<rect width="28.2857" height="18.5142" fill="white" transform="translate(-3.42847 0.486816)"/>
</clipPath>
</defs>
</svg>
