<svg width="21" height="20" viewBox="0 0 21 20" fill="none" xmlns="http://www.w3.org/2000/svg">
<path d="M17.3057 3.5L13.6715 7.13411M7.93456 12.8711L4.30566 16.5M4.30566 3.5L7.93456 7.1289M13.6715 12.8659L17.3057 16.5M19.8057 10C19.8057 14.9706 15.7762 19 10.8057 19C5.8351 19 1.80566 14.9706 1.80566 10C1.80566 5.02944 5.8351 1 10.8057 1C15.7762 1 19.8057 5.02944 19.8057 10ZM14.8057 10C14.8057 12.2091 13.0148 14 10.8057 14C8.59652 14 6.80566 12.2091 6.80566 10C6.80566 7.79086 8.59652 6 10.8057 6C13.0148 6 14.8057 7.79086 14.8057 10Z" stroke="#687986" stroke-width="2"/>
</svg>
