<svg width="21" height="20" viewBox="0 0 21 20" fill="none" xmlns="http://www.w3.org/2000/svg">
<path d="M18.8057 4C18.8057 2.897 17.9087 2 16.8057 2H14.8057V0H12.8057V2H8.80566V0H6.80566V2H4.80566C3.70266 2 2.80566 2.897 2.80566 4V6H0.805664V8H2.80566V12H0.805664V14H2.80566V16C2.80566 17.103 3.70266 18 4.80566 18H6.80566V20H8.80566V18H12.8057V20H14.8057V18H16.8057C17.9087 18 18.8057 17.103 18.8057 16V14H20.8057V12H18.8057V8H20.8057V6H18.8057V4ZM4.80566 16V4H16.8057L16.8077 16H4.80566Z" fill="#687986"/>
</svg>
