<svg width="19" height="18" viewBox="0 0 19 18" fill="none" xmlns="http://www.w3.org/2000/svg">
<path d="M17.8057 1H18.8057V0H17.8057V1ZM17.8057 17V18H18.8057V17H17.8057ZM1.80566 17H0.805664V18H1.80566V17ZM1.80566 1V0H0.805664V1H1.80566ZM10.8057 1V0H8.80566V1H10.8057ZM1.80566 6H0.805664V8H1.80566V6ZM8.80566 17V18H10.8057V17H8.80566ZM17.8057 12H18.8057V10H17.8057V12ZM16.8057 1V17H18.8057V1H16.8057ZM17.8057 16H1.80566V18H17.8057V16ZM2.80566 17V1H0.805664V17H2.80566ZM1.80566 2H17.8057V0H1.80566V2ZM8.80566 1V7H10.8057V1H8.80566ZM9.80566 6H1.80566V8H9.80566V6ZM8.80566 7V11H10.8057V7H8.80566ZM8.80566 11V17H10.8057V11H8.80566ZM9.80566 12H17.8057V10H9.80566V12Z" fill="#687986"/>
</svg>
