<svg width="21" height="17" viewBox="0 0 21 17" fill="none" xmlns="http://www.w3.org/2000/svg">
<path d="M12.7578 14.875H8.99894C8.67593 14.875 8.41406 15.1369 8.41406 15.4599C8.41406 15.7829 8.67593 16.0448 8.99894 16.0448H12.7578C13.0808 16.0448 13.3427 15.7829 13.3427 15.4599C13.3427 15.1369 13.0808 14.875 12.7578 14.875Z" fill="#687986"/>
<path d="M12.5214 11.2684C12.6442 11.0219 12.7137 10.7442 12.7137 10.4502C12.7137 9.43551 11.8911 8.61294 10.8764 8.61294C10.5823 8.61294 10.3046 8.68242 10.0581 8.80528L7.30314 6.05022C7.07476 5.8218 6.70442 5.8218 6.476 6.05022C6.24758 6.27859 6.24758 6.6489 6.476 6.87736L9.23114 9.63262C9.10851 9.87889 9.03919 10.1564 9.03919 10.4502C9.03919 11.4649 9.86176 12.2875 10.8765 12.2875C11.1703 12.2875 11.4479 12.2181 11.6942 12.0954L12.3423 12.7436C12.5707 12.972 12.941 12.9721 13.1694 12.7437C13.3978 12.5153 13.3979 12.145 13.1695 11.9165L12.5214 11.2684ZM10.8764 11.1177C10.5084 11.1177 10.2089 10.8183 10.2089 10.4502C10.2089 10.0822 10.5083 9.78274 10.8764 9.78274C11.2445 9.78274 11.5439 10.0822 11.5439 10.4502C11.5439 10.8183 11.2445 11.1177 10.8764 11.1177Z" fill="#687986"/>
<path d="M10.8804 0.46875C5.37633 0.46875 0.898438 4.94664 0.898438 10.4507C0.898438 12.205 1.36096 13.9311 2.23606 15.4424C2.39772 15.7216 2.75497 15.8171 3.03439 15.6559C3.0345 15.6558 4.66235 14.7161 4.66235 14.7161C4.94208 14.5546 5.03792 14.1969 4.87641 13.9172C4.71491 13.6374 4.35727 13.5415 4.07746 13.7031L2.97274 14.3409C2.4653 13.3107 2.16486 12.186 2.0884 11.0357H3.36274C3.68575 11.0357 3.94762 10.7738 3.94762 10.4508C3.94762 10.1278 3.68575 9.86589 3.36274 9.86589H2.08809C2.16576 8.68653 2.47633 7.56992 2.97442 6.56158L4.0775 7.19844C4.35731 7.36006 4.71503 7.2641 4.87645 6.98437C5.03796 6.7046 4.94211 6.34689 4.66239 6.18542L3.56066 5.54931C4.20189 4.59486 5.02458 3.77216 5.97903 3.13094L6.61507 4.23254C6.77658 4.51231 7.13429 4.60823 7.41402 4.44661C7.69375 4.28506 7.78959 3.92739 7.62809 3.64766L6.99127 2.54469C7.9996 2.04664 9.11626 1.73627 10.2955 1.65848V2.93309C10.2955 3.2561 10.5574 3.51797 10.8804 3.51797C11.2034 3.51797 11.4653 3.2561 11.4653 2.93309V1.65848C12.6446 1.73627 13.7612 2.04668 14.7696 2.54469L14.1328 3.64766C13.9712 3.92739 14.0671 4.2851 14.3468 4.44661C14.6265 4.60823 14.9843 4.51231 15.1458 4.23254L15.7818 3.13094C16.7363 3.77212 17.559 4.59482 18.2002 5.54931L17.0985 6.18534C16.8188 6.34685 16.7229 6.70452 16.8844 6.98429C17.0459 7.26402 17.4036 7.35998 17.6834 7.19836L18.7865 6.5615C19.2845 7.56984 19.5951 8.68645 19.6728 9.86581H18.3981C18.0751 9.86581 17.8132 10.1277 17.8132 10.4507C17.8132 10.7737 18.0751 11.0356 18.3981 11.0356H19.6724C19.596 12.1859 19.2955 13.3106 18.7881 14.3408L17.6834 13.703C17.4036 13.5414 17.0459 13.6374 16.8844 13.9171C16.7229 14.1969 16.8188 14.5546 17.0985 14.716C17.0985 14.716 18.7263 15.6557 18.7265 15.6558C19.0059 15.817 19.3631 15.7215 19.5248 15.4423C20.3999 13.9311 20.8624 12.205 20.8624 10.4507C20.8624 4.94664 16.3845 0.46875 10.8804 0.46875Z" fill="#687986"/>
</svg>
