<svg width="20" height="20" viewBox="0 0 20 20" fill="none" xmlns="http://www.w3.org/2000/svg">
<g clip-path="url(#clip0_1687_1279)">
<path d="M17.4643 10.3415C17.4643 8.46193 16.7323 6.69483 15.4033 5.36571C14.0742 4.03666 12.3071 3.30469 10.4275 3.30469C9.0488 3.30469 7.73087 3.69897 6.60171 4.43336C6.37397 4.22366 6.07023 4.09532 5.737 4.09532C5.03241 4.09532 4.45918 4.66854 4.45918 5.37314C4.45918 5.68025 4.56814 5.96239 4.7494 6.183C3.86734 7.38204 3.39062 8.82509 3.39062 10.3415C3.39062 12.2211 4.12259 13.9882 5.45165 15.3174C6.78076 16.6464 8.54786 17.3784 10.4275 17.3784C11.8061 17.3784 13.124 16.9841 14.2532 16.2497C14.481 16.4594 14.7847 16.5877 15.1179 16.5877C15.8225 16.5877 16.3958 16.0145 16.3958 15.3099C16.3958 15.0028 16.2868 14.7207 16.1055 14.5001C16.9876 13.301 17.4643 11.858 17.4643 10.3415ZM15.5711 15.3099C15.5711 15.5598 15.3678 15.7631 15.1179 15.7631C14.868 15.7631 14.6648 15.5598 14.6648 15.3099C14.6648 15.06 14.868 14.8567 15.1179 14.8567C15.3678 14.8567 15.5711 15.06 15.5711 15.3099ZM15.1179 14.0321C14.4133 14.0321 13.8401 14.6053 13.8401 15.3099C13.8401 15.3809 13.8462 15.4505 13.8574 15.5184C13.3129 15.8804 12.7083 16.1587 12.062 16.3351C12.2836 16.017 12.4864 15.6298 12.6654 15.1776C12.8926 14.6039 13.0746 13.9482 13.207 13.238H15.9217C15.7685 13.5274 15.5935 13.8034 15.3983 14.0634C15.308 14.0432 15.2142 14.0321 15.1179 14.0321ZM8.95625 14.874C8.83912 14.5782 8.735 14.2577 8.64443 13.9173C8.89742 13.7629 9.0925 13.5229 9.18989 13.238H12.3679C12.2484 13.8364 12.091 14.3882 11.8987 14.874C11.4823 15.9258 10.9323 16.5537 10.4275 16.5537C9.92266 16.5537 9.37266 15.9258 8.95625 14.874ZM4.57097 12.4134C4.34093 11.7651 4.21526 11.0678 4.21526 10.3415C4.21526 9.65044 4.32883 8.9854 4.53804 8.36396H7.50787C7.43178 8.99793 7.39236 9.66256 7.39236 10.3415C7.39236 10.7911 7.40971 11.2344 7.44346 11.6667C7.12953 11.8129 6.88461 12.0827 6.77153 12.4134H4.57097ZM5.28381 5.37314C5.28381 5.12324 5.48711 4.91995 5.737 4.91995C5.98689 4.91995 6.19019 5.12324 6.19019 5.37314C6.19019 5.62303 5.98689 5.82632 5.737 5.82632C5.48711 5.82632 5.28381 5.62303 5.28381 5.37314ZM5.737 6.65095C6.44159 6.65095 7.01482 6.07773 7.01482 5.37314C7.01482 5.30213 7.00875 5.23259 6.99756 5.16472C7.54209 4.80274 8.14668 4.52443 8.793 4.34795C8.57139 4.66607 8.36859 5.05323 8.18953 5.50549C7.95237 6.10453 7.76449 6.79293 7.63076 7.5393H4.8842C5.04857 7.21547 5.24033 6.90783 5.45671 6.61959C5.54698 6.6399 5.64068 6.65095 5.737 6.65095ZM11.8987 5.80906C12.0252 6.1285 12.1364 6.47674 12.2318 6.84774C11.9686 7.0015 11.7651 7.24659 11.665 7.53933H8.46875C8.59022 6.90467 8.75383 6.32022 8.95622 5.80906C9.37266 4.75727 9.92266 4.12932 10.4275 4.12932C10.9323 4.12932 11.4823 4.75727 11.8987 5.80906ZM16.3169 8.36396C16.5261 8.9854 16.6397 9.65044 16.6397 10.3415C16.6397 11.0678 16.514 11.7651 16.284 12.4134H13.3353C13.419 11.7512 13.4626 11.0543 13.4626 10.3415C13.4626 9.92347 13.4475 9.51094 13.4182 9.10756C13.7289 8.96074 13.9711 8.69227 14.0834 8.36396H16.3169ZM9.18989 12.4134C9.04778 11.9978 8.69734 11.6783 8.26359 11.5799C8.23283 11.1765 8.21699 10.7623 8.21699 10.3415C8.21699 9.6589 8.25855 8.99359 8.33835 8.36396H11.665C11.8079 8.78177 12.1614 9.10255 12.5983 9.19914C12.6245 9.57215 12.6379 9.95404 12.6379 10.3416C12.6379 11.0584 12.5921 11.7561 12.5043 12.4134H9.18989V12.4134ZM7.52752 12.8257C7.52752 12.5758 7.73082 12.3725 7.98071 12.3725C8.2306 12.3725 8.4339 12.5758 8.4339 12.8257C8.4339 13.0756 8.2306 13.2789 7.98071 13.2789C7.73082 13.2789 7.52752 13.0756 7.52752 12.8257ZM13.3274 7.95164C13.3274 8.20153 13.1241 8.40483 12.8742 8.40483C12.6243 8.40483 12.421 8.20153 12.421 7.95164C12.421 7.70175 12.6243 7.49846 12.8742 7.49846C13.1241 7.49846 13.3274 7.70173 13.3274 7.95164ZM15.9707 7.53933H14.0834C13.9288 7.08727 13.5277 6.74884 13.0411 6.68507C12.9346 6.26379 12.8091 5.86827 12.6655 5.50552C12.4864 5.05326 12.2836 4.66607 12.062 4.34798C13.7686 4.81387 15.1847 5.9907 15.9707 7.53933ZM4.93329 13.238H6.77153C6.92878 13.6979 7.34113 14.0404 7.83912 14.0955C7.94003 14.4804 8.05702 14.843 8.18951 15.1775C8.36856 15.6298 8.57136 16.017 8.79297 16.3351C7.12123 15.8787 5.72837 14.7401 4.93329 13.238Z" fill="#687986"/>
</g>
<circle cx="10.4267" cy="10.3407" r="9.04442" stroke="#687986" stroke-width="0.952044"/>
<defs>
<clipPath id="clip0_1687_1279">
<rect width="14.0737" height="14.0737" fill="white" transform="translate(3.39062 3.30469)"/>
</clipPath>
</defs>
</svg>
