<svg width="20" height="20" viewBox="0 0 20 20" fill="none" xmlns="http://www.w3.org/2000/svg">
<g clip-path="url(#clip0_1687_1293)">
<path d="M18.9044 9.81428L19.0829 9.52287L18.9044 9.23131C18.8744 9.18264 18.1562 8.02339 16.7609 6.86166C14.9051 5.31671 12.7188 4.5 10.4382 4.5C8.15813 4.5 5.96644 5.31627 4.10001 6.8605C2.69669 8.02164 1.97034 9.18003 1.94013 9.22884L1.75781 9.52287L1.94013 9.81689C1.97034 9.86571 2.69669 11.0241 4.10001 12.1852C5.96644 13.7295 8.15813 14.5457 10.4382 14.5457C12.7188 14.5457 14.9051 13.729 16.7609 12.1841C18.1562 11.0223 18.8744 9.86309 18.9044 9.81428ZM16.0174 11.3511C14.348 12.7306 12.4708 13.4299 10.4382 13.4299C8.4048 13.4299 6.52152 12.7301 4.84074 11.3498C3.97144 10.6359 3.38208 9.91306 3.09343 9.52287C3.38223 9.13238 3.97159 8.40966 4.84074 7.6958C6.52152 6.31559 8.40466 5.61568 10.4382 5.61568C12.4708 5.61568 14.3478 6.31515 16.0174 7.69449C16.8828 8.40952 17.4671 9.1334 17.7518 9.52287C17.4668 9.91248 16.8826 10.6364 16.0174 11.3511Z" fill="#687986" stroke="#687986" stroke-width="0.259648"/>
<path d="M10.4223 6.16797C8.57401 6.16797 7.07031 7.67166 7.07031 9.51994C7.07031 11.3682 8.57401 12.8719 10.4223 12.8719C12.2706 12.8719 13.7742 11.3682 13.7742 9.51994C13.7742 7.67166 12.2706 6.16797 10.4223 6.16797ZM10.4223 11.7562C9.18923 11.7562 8.18599 10.753 8.18599 9.51994C8.18599 8.28688 9.18923 7.28365 10.4223 7.28365C11.6553 7.28365 12.6586 8.28688 12.6586 9.51994C12.6586 10.753 11.6553 11.7562 10.4223 11.7562Z" fill="#687986"/>
<path d="M2.02193 1.11568H4.3509V0H0.90625V3.40281H2.02193V1.11568Z" fill="#687986" stroke="#687986" stroke-width="0.259648"/>
<path d="M16.4922 0V1.11568H18.8212V3.40281H19.9368V0H16.4922Z" fill="#687986" stroke="#687986" stroke-width="0.259648"/>
<path d="M2.02193 15.6367H0.90625V19.0395H4.3509V17.9239H2.02193V15.6367Z" fill="#687986" stroke="#687986" stroke-width="0.259648"/>
<path d="M18.8212 17.9239H16.4922V19.0395H19.9368V15.6367H18.8212V17.9239Z" fill="#687986" stroke="#687986" stroke-width="0.259648"/>
</g>
<defs>
<clipPath id="clip0_1687_1293">
<rect width="19.0409" height="19.0409" fill="white" transform="translate(0.90625)"/>
</clipPath>
</defs>
</svg>
