<svg width="40" height="16" viewBox="0 0 40 16" fill="none" xmlns="http://www.w3.org/2000/svg">
<path d="M32.4632 7.70838L36.2629 14.8235H39.9999L32.4632 0.729533L24.9264 14.8235H28.6635L32.4632 7.70838Z" fill="#41515C"/>
<path d="M20.0946 11.5221L20.105 0.708043H16.8064V14.8229H23.1636L24.9277 11.5221H20.0946Z" fill="#41515C"/>
<path d="M7.54716 0.207649C6.05609 0.205576 4.5979 0.647531 3.35711 1.4776C2.11632 2.30766 1.14869 3.48853 0.576646 4.87079C0.00460407 6.25305 -0.14614 7.77458 0.143489 9.24286C0.433118 10.7111 1.1501 12.0602 2.20372 13.1193C3.25734 14.1784 4.60025 14.9001 6.06253 15.1928C7.52481 15.4856 9.04074 15.3364 10.4185 14.7641C11.7963 14.1917 12.974 13.222 13.8026 11.9777C14.6312 10.7333 15.0735 9.2701 15.0735 7.77331C15.0735 5.76859 14.2809 3.84582 12.8697 2.42728C11.4586 1.00875 9.54424 0.210425 7.54716 0.207649ZM7.54716 11.8495C6.7436 11.8516 5.95748 11.6143 5.28834 11.1677C4.61919 10.721 4.0971 10.0851 3.78815 9.34049C3.47921 8.59584 3.3973 7.77592 3.5528 6.98452C3.70831 6.19312 4.09422 5.46582 4.6617 4.8947C5.22918 4.32358 5.9527 3.93432 6.74068 3.77618C7.52866 3.61805 8.34566 3.69816 9.08826 4.00637C9.83086 4.31458 10.4657 4.83703 10.9123 5.50759C11.359 6.17815 11.5974 6.96666 11.5974 7.77331C11.5946 8.85536 11.1645 9.89214 10.4013 10.6563C9.63813 11.4204 8.60421 11.8495 7.52629 11.8495H7.54716Z" fill="#41515C"/>
</svg>
