<svg width="21" height="21" viewBox="0 0 21 21" fill="none" xmlns="http://www.w3.org/2000/svg">
<path d="M4.9216 17.5056L4.2675 18.262L4.9216 17.5056ZM16.6897 17.5056L16.0356 16.7492L16.6897 17.5056ZM15.5675 17.724L16.2421 18.4622L17.7184 17.113L17.0438 16.3748L15.5675 17.724ZM2.80566 10.6953C2.80566 6.27703 6.38739 2.69531 10.8057 2.69531V0.695312C5.28282 0.695312 0.805664 5.17246 0.805664 10.6953H2.80566ZM10.8057 2.69531C15.2239 2.69531 18.8057 6.27703 18.8057 10.6953H20.8057C20.8057 5.17246 16.3285 0.695312 10.8057 0.695312V2.69531ZM12.8057 8.69531C12.8057 9.79988 11.9102 10.6953 10.8057 10.6953V12.6953C13.0148 12.6953 14.8057 10.9045 14.8057 8.69531H12.8057ZM10.8057 10.6953C9.70109 10.6953 8.80566 9.79988 8.80566 8.69531H6.80566C6.80566 10.9045 8.59653 12.6953 10.8057 12.6953V10.6953ZM8.80566 8.69531C8.80566 7.59074 9.70109 6.69531 10.8057 6.69531V4.69531C8.59653 4.69531 6.80566 6.48617 6.80566 8.69531H8.80566ZM10.8057 6.69531C11.9102 6.69531 12.8057 7.59074 12.8057 8.69531H14.8057C14.8057 6.48617 13.0148 4.69531 10.8057 4.69531V6.69531ZM10.8057 18.6953C8.80532 18.6953 6.97866 17.9624 5.57571 16.7492L4.2675 18.262C6.02002 19.7775 8.30692 20.6953 10.8057 20.6953V18.6953ZM5.57571 16.7492C3.8776 15.2808 2.80566 13.1138 2.80566 10.6953H0.805664C0.805664 13.7189 2.14878 16.4299 4.2675 18.262L5.57571 16.7492ZM18.8057 10.6953C18.8057 13.1138 17.7337 15.2808 16.0356 16.7492L17.3438 18.262C19.4625 16.4299 20.8057 13.7189 20.8057 10.6953H18.8057ZM16.0356 16.7492C14.6327 17.9624 12.806 18.6953 10.8057 18.6953V20.6953C13.3044 20.6953 15.5913 19.7775 17.3438 18.262L16.0356 16.7492ZM6.04383 17.724C7.18006 16.4807 8.81525 15.6953 10.8057 15.6953V13.6953C8.25578 13.6953 6.0841 14.7153 4.56749 16.3748L6.04383 17.724ZM10.8057 15.6953C12.7961 15.6953 14.4313 16.4807 15.5675 17.724L17.0438 16.3748C15.5272 14.7153 13.3555 13.6953 10.8057 13.6953V15.6953Z" fill="#687986"/>
</svg>
