<svg width="18" height="21" viewBox="0 0 18 21" fill="none" xmlns="http://www.w3.org/2000/svg">
<path d="M17.4865 5.41458C17.4763 4.87713 17.4665 4.36942 17.4665 3.87824C17.4665 3.49344 17.1547 3.18147 16.7698 3.18147C13.7899 3.18147 11.5211 2.32509 9.62999 0.486353C9.35946 0.223252 8.92895 0.223345 8.65851 0.486353C6.76756 2.32509 4.49915 3.18147 1.51947 3.18147C1.13467 3.18147 0.822701 3.49344 0.822701 3.87824C0.822701 4.36951 0.813039 4.87741 0.802727 5.41495C0.707223 10.4165 0.576416 17.2663 8.91603 20.157C8.98998 20.1826 9.06709 20.1954 9.1442 20.1954C9.22131 20.1954 9.29851 20.1826 9.37237 20.157C17.7126 17.2662 17.582 10.4162 17.4865 5.41458ZM9.1443 18.7592C1.99198 16.161 2.10012 10.4693 2.19608 5.44152C2.20185 5.13977 2.20742 4.84731 2.21132 4.56061C5.00213 4.44281 7.23384 3.59712 9.1443 1.93285C11.0549 3.59712 13.287 4.4429 16.078 4.56061C16.0819 4.84722 16.0875 5.13949 16.0932 5.44105C16.1891 10.4691 16.2972 16.1609 9.1443 18.7592Z" fill="#687986"/>
<path d="M11.55 7.82123L8.18698 11.184L6.75191 9.74896C6.4798 9.47694 6.0386 9.47694 5.76658 9.74896C5.49447 10.0212 5.49447 10.4623 5.76658 10.7344L7.69432 12.6621C7.83033 12.7981 8.0087 12.8661 8.18698 12.8661C8.36527 12.8661 8.54364 12.7981 8.67965 12.6621L12.5352 8.80665C12.8074 8.53453 12.8074 8.09334 12.5353 7.82132C12.2633 7.54921 11.8221 7.54911 11.55 7.82123Z" fill="#687986"/>
</svg>
