<svg width="21" height="20" viewBox="0 0 21 20" fill="none" xmlns="http://www.w3.org/2000/svg">
<g clip-path="url(#clip0_1674_1551)">
<path d="M10.8616 5.53906C8.37474 5.53906 6.35156 7.56228 6.35156 10.0491C6.35156 12.5359 8.37474 14.5591 10.8616 14.5591C11.3261 14.5591 11.7844 14.4886 12.2238 14.3496C12.6332 14.22 12.8601 13.783 12.7305 13.3736C12.6009 12.9641 12.1638 12.7373 11.7545 12.8669C11.4671 12.9578 11.1667 13.004 10.8616 13.004C9.23231 13.004 7.90675 11.6784 7.90675 10.0491C7.90675 8.41977 9.23231 7.09425 10.8616 7.09425C12.4909 7.09425 13.8165 8.41977 13.8165 10.0491C13.8165 10.3323 13.7766 10.612 13.6981 10.8806C13.5775 11.2928 13.8139 11.7246 14.2261 11.8452C14.6384 11.9657 15.0702 11.7293 15.1908 11.3171C15.3108 10.9067 15.3716 10.48 15.3716 10.0491C15.3716 7.56228 13.3485 5.53906 10.8616 5.53906Z" fill="#687986"/>
<path d="M18.472 7.3254H18.0805C17.9774 7.3254 17.8841 7.26051 17.8436 7.16261L17.8367 7.14581C17.7948 7.04496 17.8148 6.93271 17.8877 6.85985L18.1646 6.58295C19.0742 5.6734 19.0742 4.19345 18.1646 3.2839L17.6148 2.73407C17.1741 2.29344 16.5883 2.05079 15.9652 2.05079C15.3421 2.05079 14.7563 2.29344 14.3157 2.73407L14.0388 3.01093C13.9659 3.08383 13.8536 3.10381 13.7532 3.06209L13.7385 3.05603C13.6381 3.01454 13.5732 2.92119 13.5732 2.8182V2.42653C13.5732 1.14023 12.5268 0.09375 11.2405 0.09375H10.4629C9.17657 0.09375 8.13009 1.14023 8.13009 2.42653V2.8182C8.13009 2.92119 8.06524 3.01454 7.96566 3.05564L7.95046 3.06194C7.84973 3.10385 7.73736 3.08383 7.66454 3.01097L7.38764 2.73407C6.94706 2.29344 6.36122 2.05079 5.7381 2.05079C5.11497 2.05079 4.52917 2.29344 4.08855 2.73407L3.53871 3.28382C2.62916 4.19341 2.62916 5.67333 3.53875 6.58292L3.81561 6.85978C3.88847 6.93268 3.90846 7.04492 3.86542 7.14865L3.86072 7.16001C3.81927 7.26043 3.72584 7.32532 3.62285 7.32532H3.23122C1.94492 7.32532 0.898438 8.37181 0.898438 9.6581V10.4357C0.898438 11.722 1.94492 12.7685 3.23122 12.7685H3.62281C3.72584 12.7685 3.81919 12.8334 3.85967 12.9313L3.86659 12.9481C3.90846 13.0489 3.88844 13.1612 3.81558 13.234L3.53871 13.5109C3.09809 13.9515 2.85544 14.5373 2.85544 15.1605C2.85544 15.7835 3.09809 16.3693 3.53868 16.81L4.08851 17.3598C4.52913 17.8004 5.11497 18.0431 5.73806 18.0431C6.36122 18.0431 6.94702 17.8004 7.3876 17.3598L7.66446 17.0829C7.73729 17.01 7.84969 16.9901 7.95011 17.0318L7.96477 17.0378C8.0652 17.0793 8.13005 17.1727 8.13005 17.2757V17.6673C8.13005 18.9536 9.17653 20.0001 10.4628 20.0001H11.2404C12.5267 20.0001 13.5732 18.9536 13.5732 17.6673V17.2757C13.5732 17.1727 13.638 17.0793 13.7376 17.0382L13.7528 17.0319C13.8536 16.9901 13.9659 17.0101 14.0387 17.0829L14.3156 17.3598C14.7562 17.8004 15.3421 18.0431 15.9652 18.0431C16.5883 18.0431 17.1741 17.8004 17.6147 17.3598L18.1646 16.81C18.6052 16.3694 18.8478 15.7835 18.8478 15.1605C18.8478 14.5373 18.6052 13.9515 18.1646 13.511L17.8877 13.2341C17.8148 13.1612 17.7948 13.0489 17.8367 12.9481L17.8425 12.9339C17.884 12.8334 17.9774 12.7685 18.0804 12.7685H18.472C19.7583 12.7685 20.8048 11.7221 20.8048 10.4358V9.65818C20.8048 8.37188 19.7583 7.3254 18.472 7.3254ZM19.2496 10.4357C19.2496 10.8645 18.9008 11.2133 18.472 11.2133H18.0804C17.3454 11.2133 16.6878 11.6556 16.4051 12.3402L16.4001 12.3524C16.1163 13.0366 16.2685 13.8143 16.7879 14.3337L17.0649 14.6106C17.2117 14.7575 17.2926 14.9528 17.2926 15.1605C17.2926 15.3682 17.2117 15.5634 17.0648 15.7103L16.515 16.2601C16.3681 16.407 16.1728 16.4879 15.9651 16.4879C15.7574 16.4879 15.5622 16.407 15.4153 16.2601L15.1384 15.9832C14.6186 15.4636 13.8405 15.3115 13.1559 15.5959L13.1449 15.6004C12.4603 15.8831 12.018 16.5406 12.018 17.2757V17.6673C12.018 18.0961 11.6692 18.4449 11.2404 18.4449H10.4628C10.0341 18.4449 9.68523 18.0961 9.68523 17.6673V17.2757C9.68523 16.5406 9.2429 15.8831 8.55753 15.6001L8.54703 15.5957C8.31803 15.5006 8.07865 15.4544 7.84187 15.4544C7.371 15.4544 6.91067 15.6374 6.56483 15.9832L6.28793 16.2602C6.14104 16.407 5.94583 16.4879 5.7381 16.4879C5.5304 16.4879 5.33511 16.407 5.18826 16.2601L4.63842 15.7103C4.49154 15.5634 4.41067 15.3682 4.41067 15.1605C4.41067 14.9528 4.49154 14.7575 4.63842 14.6106L4.91533 14.3337C5.4348 13.8143 5.58697 13.0366 5.30319 12.3524L5.29813 12.3402C5.0154 11.6556 4.35783 11.2133 3.62285 11.2133H3.23122C2.80245 11.2133 2.45362 10.8645 2.45362 10.4357V9.65814C2.45362 9.22937 2.80245 8.88055 3.23122 8.88055H3.62285C4.35787 8.88055 5.01544 8.43825 5.29918 7.75121L5.3028 7.74238C5.58709 7.05795 5.43499 6.27989 4.91529 5.76014L4.63842 5.48328C4.3352 5.18006 4.3352 4.68676 4.63842 4.38357L5.18822 3.83374C5.33515 3.68689 5.5304 3.60598 5.7381 3.60598C5.94583 3.60598 6.14108 3.68685 6.28793 3.83374L6.56487 4.11068C7.08465 4.63034 7.86275 4.78244 8.54738 4.49799L8.55835 4.49345C9.2429 4.21079 9.68523 3.55322 9.68523 2.8182V2.42653C9.68523 1.99776 10.0341 1.64894 10.4628 1.64894H11.2404C11.6692 1.64894 12.018 1.99776 12.018 2.42653V2.8182C12.018 3.55322 12.4603 4.21079 13.1457 4.49376L13.1562 4.49811C13.8405 4.78232 14.6186 4.63026 15.1384 4.1106L15.4153 3.83366C15.5622 3.68681 15.7574 3.60594 15.9651 3.60594C16.1728 3.60594 16.3681 3.68685 16.515 3.8337L17.0648 4.38353C17.368 4.68672 17.368 5.18002 17.0649 5.4832L16.7879 5.76014C16.2683 6.27989 16.1162 7.05791 16.3993 7.73951L16.4051 7.7537C16.6878 8.43825 17.3454 8.88055 18.0804 8.88055H18.472C18.9008 8.88055 19.2496 9.22937 19.2496 9.65814V10.4357Z" fill="#687986"/>
</g>
<defs>
<clipPath id="clip0_1674_1551">
<rect width="19.9064" height="19.9064" fill="white" transform="translate(0.90625 0.09375)"/>
</clipPath>
</defs>
</svg>
