<svg width="19" height="21" viewBox="0 0 19 21" fill="none" xmlns="http://www.w3.org/2000/svg">
<g clip-path="url(#clip0_1687_1271)">
<path d="M15.8098 1.21439C14.2078 0.746163 12.0995 0.488281 9.87292 0.488281C7.6463 0.488281 5.53799 0.746163 3.93603 1.21439C2.7663 1.55626 1.125 2.22556 1.125 3.44313V17.4398C1.125 18.6577 2.76736 19.327 3.93603 19.6685C5.53799 20.1368 7.6463 20.3946 9.87292 20.3946C12.0995 20.3946 14.2078 20.1368 15.8098 19.6685C16.9795 19.3267 18.6208 18.6574 18.6208 17.4398V3.44313C18.6208 2.22602 16.9806 1.55656 15.8098 1.21439ZM9.87292 1.65467C11.9917 1.65467 13.984 1.89585 15.4827 2.334C17.0922 2.80435 17.4544 3.30493 17.4544 3.44313C17.4544 3.57967 17.0928 4.0728 15.486 4.53191C13.9946 4.95807 12.0011 5.19272 9.87292 5.19272C4.97818 5.19272 2.29139 3.99671 2.29139 3.44313C2.29139 2.90459 4.92336 1.65467 9.87292 1.65467ZM15.4827 18.5489C13.984 18.9871 11.9917 19.2283 9.87292 19.2283C4.95069 19.2283 2.29139 17.985 2.29139 17.4398V16.6614C3.62423 17.4214 5.90385 17.8319 8.08704 17.9682L8.15963 16.8041C6.42083 16.6956 4.84864 16.4204 3.73297 16.0292C2.55626 15.6166 2.29139 15.2152 2.29139 15.107V14.3325C4.18844 15.4041 7.68017 15.6902 9.87292 15.6902C12.0966 15.6902 15.5709 15.3965 17.4544 14.3325V17.4398C17.4544 17.578 17.0922 18.0786 15.4827 18.5489ZM9.87292 14.5238C4.97818 14.5238 2.29139 13.3278 2.29139 12.7742V11.9959C3.62423 12.7559 5.90385 13.1664 8.08704 13.3026L8.15963 12.1385C4.11357 11.8861 2.29139 10.8597 2.29139 10.4415V9.66691C4.1892 10.7388 7.68199 11.0247 9.87292 11.0247C12.059 11.0247 15.5569 10.7388 17.4544 9.66691V12.7742C17.4544 13.3041 14.8533 14.5238 9.87292 14.5238ZM9.87292 9.85827C4.97818 9.85827 2.29139 8.66227 2.29139 8.10869V7.33034C3.62423 8.09031 5.90385 8.50082 8.08704 8.63706L8.15963 7.47295C4.11357 7.22053 2.29139 6.19417 2.29139 5.77591V5.00136C4.1892 6.07328 7.68199 6.3591 9.87292 6.3591C12.1064 6.3591 14.2136 6.10851 15.8065 5.65335C16.4741 5.46259 17.0233 5.24496 17.4544 5.00136V8.10869C17.4544 8.63857 14.8533 9.85827 9.87292 9.85827Z" fill="#687986"/>
<path d="M9.28906 7.52344H10.4555V8.68983H9.28906V7.52344Z" fill="#687986"/>
<path d="M9.28906 12.1914H10.4555V13.3578H9.28906V12.1914Z" fill="#687986"/>
<path d="M9.28906 16.8594H10.4555V18.0258H9.28906V16.8594Z" fill="#687986"/>
</g>
<defs>
<clipPath id="clip0_1687_1271">
<rect width="18.1754" height="19.9064" fill="white" transform="translate(0.78125 0.488281)"/>
</clipPath>
</defs>
</svg>
